<?xml version="1.0" encoding="UTF-8" standalone="no"?>
<!-- Generated by graphviz version 2.40.1 (20161225.0304)
 -->

<!-- Title: TD Pages: 1 -->

<svg
   width="882.79248pt"
   height="666.94318pt"
   viewBox="0 0 882.29485 666.84581"
   version="1.1"
   id="svg52"
   sodipodi:docname="Fig.1.svg"
   inkscape:export-filename="Fig.1.png"
   inkscape:export-xdpi="300"
   inkscape:export-ydpi="300"
   inkscape:version="1.3.2 (091e20e, 2023-11-25, custom)"
   xmlns:inkscape="http://www.inkscape.org/namespaces/inkscape"
   xmlns:sodipodi="http://sodipodi.sourceforge.net/DTD/sodipodi-0.dtd"
   xmlns:xlink="http://www.w3.org/1999/xlink"
   xmlns="http://www.w3.org/2000/svg"
   xmlns:svg="http://www.w3.org/2000/svg">
  <defs
     id="defs52" />
  <sodipodi:namedview
     id="namedview52"
     pagecolor="#ffffff"
     bordercolor="#000000"
     borderopacity="0.25"
     inkscape:showpageshadow="2"
     inkscape:pageopacity="0.0"
     inkscape:pagecheckerboard="0"
     inkscape:deskcolor="#d1d1d1"
     inkscape:document-units="pt"
     inkscape:zoom="1.7543474"
     inkscape:cx="664.0646"
     inkscape:cy="941.3757"
     inkscape:window-width="1920"
     inkscape:window-height="991"
     inkscape:window-x="-9"
     inkscape:window-y="-9"
     inkscape:window-maximized="1"
     inkscape:current-layer="graph0" />
  <g
     id="graph0"
     class="graph"
     transform="translate(0.31475006,677.4)">
    <title
       id="title1">TD</title>
    <!-- 1&#45;&gt;2 -->
    <g
       id="edge1"
       class="edge">
      <title
         id="title2">1-&gt;2</title>
      <path
         fill="none"
         stroke="#ffffff"
         d="m 194.5,-647.4938 c 0,9.5377 0,22.4657 0,35.1686"
         id="path2" />
    </g>
    <!-- 2&#45;&gt;A -->
    <g
       id="edge2"
       class="edge">
      <title
         id="title3">2-&gt;A</title>
      <path
         fill="none"
         stroke="#000000"
         d="M 194.5,-571.7385 V -47.462324"
         id="path3"
         sodipodi:nodetypes="cc" />
    </g>
    <!-- 3&#45;&gt;4 -->
    <!-- 3&#45;&gt;5 -->
    <!-- 4&#45;&gt;5 -->
    <g
       id="edge6"
       class="edge"
       transform="translate(0,-8.9986866)">
      <title
         id="title4">4-&gt;5</title>
      <path
         fill="none"
         stroke="#000000"
         d="m 590.821,-567 c 8.381,0 16.8431,0 25.2705,0"
         id="path4" />
      <polygon
         fill="#000000"
         stroke="#000000"
         points="616.3459,-563.5001 616.346,-570.5001 626.3459,-567 "
         id="polygon4" />
    </g>
    <!-- 4&#45;&gt;6 -->
    <g
       id="edge7"
       class="edge">
      <title
         id="title5">4-&gt;6</title>
      <path
         fill="none"
         stroke="#000000"
         d="m 464.5,-556.35113 v 95.43203"
         id="path5"
         sodipodi:nodetypes="cc" />
      <polygon
         fill="#000000"
         stroke="#000000"
         points="461.0001,-460.6118 468.0001,-460.6117 464.5,-450.6118 "
         id="polygon5" />
    </g>
    <!-- 5&#45;&gt;7 -->
    <!-- 6&#45;&gt;7 -->
    <g
       id="edge8"
       class="edge">
      <title
         id="title6">6-&gt;7</title>
      <path
         fill="none"
         stroke="#000000"
         d="m 590.821,-432 c 8.381,0 16.8431,0 25.2705,0"
         id="path6" />
      <polygon
         fill="#000000"
         stroke="#000000"
         points="616.3459,-428.5001 616.346,-435.5001 626.3459,-432 "
         id="polygon6" />
    </g>
    <!-- 6&#45;&gt;8 -->
    <g
       id="edge9"
       class="edge">
      <title
         id="title7">6-&gt;8</title>
      <path
         fill="none"
         stroke="#000000"
         d="m 464.5,-413.4582 c 0,7.4999 0,16.3337 0,24.6365"
         id="path7" />
      <polygon
         fill="#000000"
         stroke="#000000"
         points="460.9999,-388.7292 467.9999,-388.7292 464.5,-378.7292 "
         id="polygon7" />
    </g>
    <!-- 7&#45;&gt;9 -->
    <!-- 8&#45;&gt;9 -->
    <g
       id="edge10"
       class="edge">
      <title
         id="title8">8-&gt;9</title>
      <path
         fill="none"
         stroke="#000000"
         d="m 590.821,-360 c 8.381,0 16.8431,0 25.2705,0"
         id="path8" />
      <polygon
         fill="#000000"
         stroke="#000000"
         points="616.3459,-356.5001 616.346,-363.5001 626.3459,-360 "
         id="polygon8" />
    </g>
    <!-- 8&#45;&gt;10 -->
    <g
       id="edge11"
       class="edge">
      <title
         id="title9">8-&gt;10</title>
      <path
         fill="none"
         stroke="#000000"
         d="m 464.5,-341.6198 c 0,10.0456 0,22.7104 0,34.0175"
         id="path9" />
      <polygon
         fill="#000000"
         stroke="#000000"
         points="461.0001,-307.3075 468.0001,-307.3074 464.5,-297.3074 "
         id="polygon9" />
    </g>
    <!-- 9&#45;&gt;11 -->
    <!-- 10&#45;&gt;12 -->
    <g
       id="edge13"
       class="edge">
      <title
         id="title10">10-&gt;12</title>
      <path
         fill="none"
         stroke="#000000"
         d="m 464.5,-260.5119 c 0,18.0082 0,46.1141 0,70.2093"
         id="path10" />
      <polygon
         fill="#000000"
         stroke="#000000"
         points="461.0001,-190.2629 468.0001,-190.2628 464.5,-180.2628 "
         id="polygon10" />
    </g>
    <!-- 10&#45;&gt;C -->
    <g
       id="edge12"
       class="edge">
      <title
         id="title11">10-&gt;C</title>
      <path
         fill="none"
         stroke="#000000"
         d="m 590.821,-279 c 8.381,0 16.8431,0 25.2705,0"
         id="path11" />
      <polygon
         fill="#000000"
         stroke="#000000"
         points="616.3459,-275.5001 616.346,-282.5001 626.3459,-279 "
         id="polygon11" />
    </g>
    <!-- 12&#45;&gt;19 -->
    <g
       id="edge17"
       class="edge">
      <title
         id="title12">12-&gt;19</title>
      <path
         fill="none"
         stroke="#000000"
         d="m 464.5,-140.7841 v 56.889082"
         id="path12"
         sodipodi:nodetypes="cc" />
      <polygon
         fill="#000000"
         stroke="#000000"
         points="460.9999,-82.351 467.9999,-82.3511 464.5,-72.351 "
         id="polygon12" />
    </g>
    <!-- A&#45;&gt;19 -->
    <g
       id="edge3"
       class="edge"
       transform="translate(0,-11.998249)">
      <title
         id="title13">A-&gt;19</title>
      <path
         fill="none"
         stroke="#000000"
         d="m 195.2745,-36 c 7.6044,0 69.9798,0 132.7739,0"
         id="path13" />
      <polygon
         fill="#000000"
         stroke="#000000"
         points="338.1218,-36 328.1217,-32.5001 328.1218,-39.5001 "
         id="polygon13" />
    </g>
    <!-- identification -->
    <g
       id="node1"
       class="node">
      <title
         id="title14">identification</title>
      <g
         id="a_node1">
        <a
           xlink:title="Blue identification box"
           id="a14">
          <path
             fill="#bcd2ee"
             stroke="#bcd2ee"
             d="m 19.3333,-612 c 0,0 -9.6666,0 -9.6666,0 -4.8334,0 -9.6667,4.8333 -9.6667,9.6667 0,0 0,70.6666 0,70.6666 0,4.8334 4.8333,9.6667 9.6667,9.6667 0,0 9.6666,0 9.6666,0 4.8334,0 9.6667,-4.8333 9.6667,-9.6667 0,0 0,-70.6666 0,-70.6666 C 29,-607.1667 24.1667,-612 19.3333,-612"
             id="path14" />
          <text
             text-anchor="middle"
             x="563.40002"
             y="16.5"
             font-family="Helvetica, sans-Serif"
             font-size="12px"
             fill="#000000"
             transform="rotate(-90)"
             id="text14">Identification</text>
        </a>
      </g>
    </g>
    <!-- screening -->
    <g
       id="node2"
       class="node">
      <title
         id="title15">screening</title>
      <g
         id="a_node2">
        <a
           xlink:title="Blue screening box"
           id="a15">
          <path
             fill="#bcd2ee"
             stroke="#bcd2ee"
             d="m 19.3333,-450 c 0,0 -9.6666,0 -9.6666,0 -4.8334,0 -9.6667,4.8333 -9.6667,9.6667 0,0 0,178.6666 0,178.6666 0,4.8334 4.8333,9.6667 9.6667,9.6667 0,0 9.6666,0 9.6666,0 4.8334,0 9.6667,-4.8333 9.6667,-9.6667 0,0 0,-178.6666 0,-178.6666 C 29,-445.1667 24.1667,-450 19.3333,-450"
             id="path15" />
          <text
             text-anchor="middle"
             x="347.39999"
             y="16.5"
             font-family="Helvetica, sans-Serif"
             font-size="12px"
             fill="#000000"
             transform="rotate(-90)"
             id="text15">Screening</text>
        </a>
      </g>
    </g>
    <!-- included -->
    <g
       id="node3"
       class="node"
       transform="translate(0,23.996497)">
      <title
         id="title16">included</title>
      <g
         id="a_node3">
        <a
           xlink:title="Blue included box"
           id="a16">
          <path
             fill="#bcd2ee"
             stroke="#bcd2ee"
             d="m 19.350093,-180.05038 c 0,0 -9.7001861,0 -9.7001861,0 -4.8501935,0 -9.70028657,3.89484 -9.70028657,7.78976 0,0 0,129.470591 0,129.470591 0,3.894918 4.85009307,7.789755 9.70028657,7.789755 0,0 9.7001861,0 9.7001861,0 4.850194,0 9.700287,-3.894837 9.700287,-7.789755 0,0 0,-129.470591 0,-129.470591 0,-3.89492 -4.850093,-7.78976 -9.700287,-7.78976"
             id="path16"
             style="stroke-width:0.899241" />
          <text
             text-anchor="middle"
             x="101.39779"
             y="16.5"
             font-family="Helvetica, sans-Serif"
             font-size="12px"
             fill="#000000"
             transform="rotate(-90)"
             id="text16">Included</text>
        </a>
      </g>
    </g>
    <!-- 1 -->
    <g
       id="node4"
       class="node">
      <title
         id="title17">1</title>
      <g
         id="a_node4">
        <a
           xlink:title="Grey title box; Previous studies"
           id="a17">
          <path
             fill="#dcdcdc"
             stroke="#dcdcdc"
             d="m 310.8333,-676.9 c 0,0 -232.6667,0 -232.6667,0 -4.8333,0 -9.6666,4.8333 -9.6666,9.6667 0,0 0,9.6666 0,9.6666 0,4.8334 4.8333,9.6667 9.6666,9.6667 0,0 232.6667,0 232.6667,0 4.8333,0 9.6667,-4.8333 9.6667,-9.6667 0,0 0,-9.6666 0,-9.6666 0,-4.8334 -4.8334,-9.6667 -9.6667,-9.6667"
             id="path17" />
          <text
             text-anchor="middle"
             x="194.5"
             y="-658.79999"
             font-family="Helvetica, sans-Serif"
             font-size="12px"
             fill="#000000"
             id="text17">Previous studies</text>
        </a>
      </g>
    </g>
    <!-- 2 -->
    <g
       id="node5"
       class="node">
      <title
         id="title18">2</title>
      <g
         id="a_node5">
        <a
           xlink:title="Studies included in previous version of review"
           id="a22">
          <polygon
             fill="#dcdcdc"
             stroke="#dcdcdc"
             points="320.5,-522 320.5,-612 68.5,-612 68.5,-522 "
             id="polygon18"
             transform="matrix(1.0012827,0,0,0.45740935,-0.24948941,-332.2271)" />
          <text
             text-anchor="middle"
             x="194.5"
             y="-592.20001"
             font-family="Helvetica, sans-Serif"
             font-size="12px"
             fill="#000000"
             id="text18">Studies included in previous version of</text>
          <text
             text-anchor="middle"
             x="194.5"
             y="-577.79999"
             font-family="Helvetica, sans-Serif"
             font-size="12px"
             fill="#000000"
             id="text19">review (n = 47)</text>
        </a>
      </g>
    </g>
    <!-- 3 -->
    <g
       id="node6"
       class="node">
      <title
         id="title22">3</title>
      <g
         id="a_node6">
        <a
           xlink:title="Yellow title box; Identification of new studies via databases and registers"
           id="a23">
          <path
             fill="#ffc125"
             stroke="#ffc125"
             d="m 868.8333,-676.9 c 0,0 -520.6667,0 -520.6667,0 -4.8333,0 -9.6666,4.8333 -9.6666,9.6667 0,0 0,9.6666 0,9.6666 0,4.8334 4.8333,9.6667 9.6666,9.6667 0,0 520.6667,0 520.6667,0 4.8333,0 9.6667,-4.8333 9.6667,-9.6667 0,0 0,-9.6666 0,-9.6666 0,-4.8334 -4.8334,-9.6667 -9.6667,-9.6667"
             id="path22" />
          <text
             text-anchor="middle"
             x="608.5"
             y="-658.79999"
             font-family="Helvetica, sans-Serif"
             font-size="12px"
             fill="#000000"
             id="text23">Identification of new studies via databases and registers</text>
        </a>
      </g>
    </g>
    <!-- 4 -->
    <g
       id="node7"
       class="node">
      <title
         id="title23">4</title>
      <g
         id="a_node7">
        <a
           xlink:title="Records identified from: Databases and Registers"
           id="a26">
          <polygon
             fill="none"
             stroke="#000000"
             points="590.5,-540 590.5,-594 338.5,-594 338.5,-540 "
             id="polygon23"
             transform="matrix(1.0006419,0,0,0.70219948,-0.29816045,-176.97439)" />
          <text
             text-anchor="middle"
             x="464.5"
             y="-577.79999"
             font-family="Helvetica, sans-Serif"
             font-size="12px"
             fill="#000000"
             id="text24">Records identified from:</text>
          <text
             text-anchor="middle"
             x="464.5"
             y="-563.40002"
             font-family="Helvetica, sans-Serif"
             font-size="12px"
             fill="#000000"
             id="text25">Databases (n = 1,008)</text>
        </a>
      </g>
    </g>
    <!-- 5 -->
    <g
       id="node8"
       class="node"
       transform="translate(2.9995622,14.997811)">
      <title
         id="title26">5</title>
      <g
         id="a_node8">
        <a
           xlink:title="Duplicate records"
           id="a31">
          <polygon
             fill="none"
             stroke="#000000"
             points="878.5,-527 878.5,-607 626.5,-607 626.5,-527 "
             id="polygon26"
             transform="matrix(1.0012972,0,0,0.45247876,-0.97615504,-332.50884)" />
          <text
             text-anchor="middle"
             x="752.5"
             y="-592.20001"
             font-family="Helvetica, sans-Serif"
             font-size="12px"
             fill="#000000"
             id="text27">Records removed before screening:</text>
          <text
             text-anchor="middle"
             x="752.5"
             y="-577.79999"
             font-family="Helvetica, sans-Serif"
             font-size="12px"
             fill="#000000"
             id="text28">Duplicate records (n = 2)</text>
        </a>
      </g>
    </g>
    <!-- 6 -->
    <g
       id="node9"
       class="node">
      <title
         id="title31">6</title>
      <g
         id="a_node9">
        <a
           xlink:title="Records screened (databases and registers)"
           id="a33">
          <polygon
             fill="none"
             stroke="#000000"
             points="338.5,-413.6995 590.5,-413.6995 590.5,-450.3005 338.5,-450.3005 "
             id="polygon31" />
          <text
             text-anchor="middle"
             x="464.5"
             y="-435.60001"
             font-family="Helvetica, sans-Serif"
             font-size="12px"
             fill="#000000"
             id="text32">Records screened</text>
          <text
             text-anchor="middle"
             x="464.5"
             y="-421.20001"
             font-family="Helvetica, sans-Serif"
             font-size="12px"
             fill="#000000"
             id="text33">(n = 1,006)</text>
        </a>
      </g>
    </g>
    <!-- 7 -->
    <g
       id="node10"
       class="node"
       transform="translate(2.9995622)">
      <title
         id="title33">7</title>
      <g
         id="a_node10">
        <a
           xlink:title="Records excluded (databases and registers)"
           id="a35">
          <polygon
             fill="none"
             stroke="#000000"
             points="878.5,-450.3005 626.5,-450.3005 626.5,-413.6995 878.5,-413.6995 "
             id="polygon33" />
          <text
             text-anchor="middle"
             x="752.5"
             y="-435.60001"
             font-family="Helvetica, sans-Serif"
             font-size="12px"
             fill="#000000"
             id="text34">Records excluded</text>
          <text
             text-anchor="middle"
             x="752.5"
             y="-421.20001"
             font-family="Helvetica, sans-Serif"
             font-size="12px"
             fill="#000000"
             id="text35">(n = 213)</text>
        </a>
      </g>
    </g>
    <!-- 8 -->
    <g
       id="node11"
       class="node">
      <title
         id="title35">8</title>
      <g
         id="a_node11">
        <a
           xlink:title="Reports sought for retrieval (databases and registers)"
           id="a37">
          <polygon
             fill="none"
             stroke="#000000"
             points="338.5,-341.6995 590.5,-341.6995 590.5,-378.3005 338.5,-378.3005 "
             id="polygon35" />
          <text
             text-anchor="middle"
             x="464.5"
             y="-363.60001"
             font-family="Helvetica, sans-Serif"
             font-size="12px"
             fill="#000000"
             id="text36">Reports sought for retrieval</text>
          <text
             text-anchor="middle"
             x="464.5"
             y="-349.20001"
             font-family="Helvetica, sans-Serif"
             font-size="12px"
             fill="#000000"
             id="text37">(n = 793)</text>
        </a>
      </g>
    </g>
    <!-- 9 -->
    <g
       id="node12"
       class="node"
       transform="translate(2.9995622)">
      <title
         id="title37">9</title>
      <g
         id="a_node12">
        <a
           xlink:title="Reports not retrieved (databases and registers)"
           id="a39">
          <polygon
             fill="none"
             stroke="#000000"
             points="878.5,-378.3005 626.5,-378.3005 626.5,-341.6995 878.5,-341.6995 "
             id="polygon37" />
          <text
             text-anchor="middle"
             x="752.5"
             y="-363.60001"
             font-family="Helvetica, sans-Serif"
             font-size="12px"
             fill="#000000"
             id="text38">Reports not retrieved</text>
          <text
             text-anchor="middle"
             x="752.5"
             y="-349.20001"
             font-family="Helvetica, sans-Serif"
             font-size="12px"
             fill="#000000"
             id="text39">(n = 699)</text>
        </a>
      </g>
    </g>
    <!-- 10 -->
    <g
       id="node13"
       class="node">
      <title
         id="title39">10</title>
      <g
         id="a_node13">
        <a
           xlink:title="Reports assessed for eligibility (databases and registers)"
           id="a41">
          <polygon
             fill="none"
             stroke="#000000"
             points="338.5,-260.6995 590.5,-260.6995 590.5,-297.3005 338.5,-297.3005 "
             id="polygon39" />
          <text
             text-anchor="middle"
             x="464.5"
             y="-282.60001"
             font-family="Helvetica, sans-Serif"
             font-size="12px"
             fill="#000000"
             id="text40">Reports assessed for eligibility</text>
          <text
             text-anchor="middle"
             x="464.5"
             y="-268.20001"
             font-family="Helvetica, sans-Serif"
             font-size="12px"
             fill="#000000"
             id="text41">(n = 44)</text>
        </a>
      </g>
    </g>
    <!-- 11 -->
    <g
       id="node14"
       class="node"
       transform="translate(2.9995622)">
      <title
         id="title41">11</title>
      <g
         id="a_node14">
        <a
           xlink:title="Reports excluded (databases and registers)"
           id="a44">
          <polygon
             fill="#ffffff"
             stroke="#000000"
             points="878.5,-304.7004 626.5,-304.7004 626.5,-253.2996 878.5,-253.2996 "
             id="polygon41" />
          <text
             text-anchor="middle"
             x="752.5"
             y="-289.79999"
             font-family="Helvetica, sans-Serif"
             font-size="12px"
             fill="#000000"
             id="text42">Reports excluded:</text>
          <text
             text-anchor="middle"
             x="752.5"
             y="-275.39999"
             font-family="Helvetica, sans-Serif"
             font-size="12px"
             fill="#000000"
             id="text43">Reason 1 (n = 3)</text>
          <text
             text-anchor="middle"
             x="752.5"
             y="-261"
             font-family="Helvetica, sans-Serif"
             font-size="12px"
             fill="#000000"
             id="text44">Reason 2 (n = 4)</text>
        </a>
      </g>
    </g>
    <!-- 12 -->
    <g
       id="node15"
       class="node">
      <title
         id="title44">12</title>
      <g
         id="a_node15">
        <a
           xlink:title="New studies included in review"
           id="a48">
          <polygon
             fill="none"
             stroke="#000000"
             points="590.5,-108 590.5,-180 338.5,-180 338.5,-108 "
             id="polygon44"
             transform="matrix(1.0010332,0,0,0.54648546,-0.47993107,-81.762803)" />
          <text
             text-anchor="middle"
             x="464.5"
             y="-162"
             font-family="Helvetica, sans-Serif"
             font-size="12px"
             fill="#000000"
             id="text45">New studies included in review</text>
          <text
             text-anchor="middle"
             x="464.5"
             y="-147.60001"
             font-family="Helvetica, sans-Serif"
             font-size="12px"
             fill="#000000"
             id="text46">(n = 37)</text>
        </a>
      </g>
    </g>
    <!-- 19 -->
    <g
       id="node16"
       class="node">
      <title
         id="title48">19</title>
      <g
         id="a_node16">
        <a
           xlink:title="Total studies included in review"
           id="a52">
          <polygon
             fill="#dcdcdc"
             stroke="#dcdcdc"
             points="590.5,0 590.5,-72 338.5,-72 338.5,0 "
             id="polygon48"
             transform="matrix(1.0010456,0,0,0.54188766,-0.4856699,-33.115831)" />
          <text
             text-anchor="middle"
             x="464.5"
             y="-54"
             font-family="Helvetica, sans-Serif"
             font-size="12px"
             fill="#000000"
             id="text49">Total studies included in review</text>
          <text
             text-anchor="middle"
             x="464.5"
             y="-39.599998"
             font-family="Helvetica, sans-Serif"
             font-size="12px"
             fill="#000000"
             id="text50">(n = 84)</text>
        </a>
      </g>
    </g>
    <!-- A -->
    <g
       id="node17"
       class="node">
      <title
         id="title52">A</title>
      <polygon
         fill="none"
         stroke="#ffffff"
         points="194,-35.5 195,-35.5 195,-36.5 194,-36.5 "
         id="polygon52" />
    </g>
    <!-- C -->
  </g>
</svg>
